<svg xmlns="http://www.w3.org/2000/svg" width="38.55" height="48" viewBox="0 0 38.55 48">
  <g transform="translate(781 -2000)">
    <path id="image" d="M13.5,34.6H34.55a1.165,1.165,0,0,0,1.1-.65,1.081,1.081,0,0,0-.1-1.25L29.9,24.95a1.255,1.255,0,0,0-1.025-.5,1.165,1.165,0,0,0-.975.45l-5.6,7.25-3.65-5a1.2,1.2,0,0,0-1.95,0L12.55,32.7a1.208,1.208,0,0,0-.1,1.25A1.064,1.064,0,0,0,13.5,34.6ZM9.45,43.25a4.53,4.53,0,0,1-3.325-1.375A4.53,4.53,0,0,1,4.75,38.55V9.45A4.613,4.613,0,0,1,6.125,6.1,4.489,4.489,0,0,1,9.45,4.7h29.1A4.571,4.571,0,0,1,41.9,6.1a4.571,4.571,0,0,1,1.4,3.35v29.1a4.489,4.489,0,0,1-1.4,3.325,4.613,4.613,0,0,1-3.35,1.375Zm0-4.7h29.1V9.45H9.45v29.1Zm0-29.1h0v29.1h0V9.45Z" transform="translate(-785.75 2000.3)"/>
  </g>
</svg>
