<svg xmlns="http://www.w3.org/2000/svg" width="46.3" height="48" viewBox="0 0 46.3 48">
  <g transform="translate(661 -2030)">
    <path id="sunny" d="M24,8.05A2.306,2.306,0,0,1,21.65,5.7V3.2a2.35,2.35,0,1,1,4.7,0V5.7A2.306,2.306,0,0,1,24,8.05Zm0,39.1a2.306,2.306,0,0,1-2.35-2.35V42.3a2.35,2.35,0,1,1,4.7,0v2.5A2.306,2.306,0,0,1,24,47.15Zm18.3-20.8a2.35,2.35,0,1,1,0-4.7h2.5a2.35,2.35,0,1,1,0,4.7Zm-39.1,0a2.35,2.35,0,1,1,0-4.7H5.7a2.35,2.35,0,1,1,0,4.7ZM35.65,12.3a2.354,2.354,0,0,1,0-3.35L36.8,7.8a2.323,2.323,0,0,1,1.65-.675,2.23,2.23,0,0,1,1.7.675,2.2,2.2,0,0,1,.675,1.675,2.474,2.474,0,0,1-.675,1.675l-1.2,1.2a2.376,2.376,0,0,1-1.675.65A2.125,2.125,0,0,1,35.65,12.3ZM7.9,40.15a2.414,2.414,0,0,1,0-3.4L9.05,35.6a2.5,2.5,0,0,1,1.7-.675,2.23,2.23,0,0,1,1.7.675,2.414,2.414,0,0,1,0,3.4l-1.2,1.2a2.236,2.236,0,0,1-1.65.65A2.314,2.314,0,0,1,7.9,40.15Zm28.9,0L35.55,39a2.5,2.5,0,0,1-.675-1.7,2.23,2.23,0,0,1,.675-1.7,2.414,2.414,0,0,1,3.4,0l1.2,1.2a2.323,2.323,0,0,1,.675,1.65,2.23,2.23,0,0,1-.675,1.7,2.314,2.314,0,0,1-1.7.7A2.154,2.154,0,0,1,36.8,40.15ZM9.05,12.3l-1.2-1.1a2.353,2.353,0,0,1-.675-1.675A2.261,2.261,0,0,1,7.85,7.8a2.2,2.2,0,0,1,1.675-.675A2.474,2.474,0,0,1,11.2,7.8L12.4,9a2.58,2.58,0,0,1,.7,1.675,2.121,2.121,0,0,1-.65,1.675,2.23,2.23,0,0,1-1.7.675A2.4,2.4,0,0,1,9.05,12.3ZM24,35.25A11.182,11.182,0,0,1,12.75,24,11.182,11.182,0,0,1,24,12.75,11.182,11.182,0,0,1,35.25,24,11.182,11.182,0,0,1,24,35.25Zm0-4.75a6.368,6.368,0,0,0,4.65-1.875A6.242,6.242,0,0,0,30.55,24,6.488,6.488,0,0,0,24,17.45a6.242,6.242,0,0,0-4.625,1.9A6.368,6.368,0,0,0,17.5,24,6.4,6.4,0,0,0,24,30.5ZM24,24Z" transform="translate(-661.85 2030.15)"/>
  </g>
</svg>
